<?xml version="1.0" encoding="UTF-8"?>
<svg id="Capa_1" data-name="Capa 1" xmlns="http://www.w3.org/2000/svg" viewBox="0 0 45 45">
  <defs>
    <style>
      .cls-1 {
        fill: #fff;
      }

      .cls-2 {
        fill: #ed1c24;
      }
    </style>
  </defs>
  <g>
    <path class="cls-1" d="m18.49,8.14h12.2c2.27,0,4.12,1.85,4.12,4.12h0c0,2.27-1.85,4.12-4.12,4.12H14.37v-4.12c0-2.27,1.85-4.12,4.12-4.12Z" transform="translate(7.2 33.53) rotate(-77.23)"/>
    <path class="cls-2" d="m27.72,25.33l-5.96-1.35c-1.51-.34-2.79-1.25-3.61-2.56-.82-1.31-1.09-2.86-.75-4.36l2.77-12.22c.34-1.51,1.25-2.79,2.56-3.61,1.31-.82,2.86-1.09,4.36-.75l.32.07c3.11.71,5.07,3.81,4.36,6.92l-4.05,17.86Zm-1.92-21.34c-.4,0-.78.11-1.13.33-.48.3-.81.77-.94,1.33l-2.77,12.22c-.13.55-.03,1.12.27,1.6s.77.81,1.33.94l2.39.54,3.24-14.29c.26-1.14-.46-2.28-1.6-2.54l-.32-.07c-.16-.04-.32-.05-.48-.05Z"/>
  </g>
  <g>
    <path class="cls-1" d="m13.84,8.25h12.2c2.27,0,4.12,1.85,4.12,4.12h0c0,2.27-1.85,4.12-4.12,4.12H9.72v-4.12c0-2.27,1.85-4.12,4.12-4.12Z" transform="translate(12.35 34.57) rotate(-102.94)"/>
    <path class="cls-2" d="m21.19,24.3c-2.64,0-5.03-1.81-5.65-4.49l-2.81-12.21c-.71-3.11,1.23-6.22,4.34-6.93l.32-.07c3.11-.71,6.22,1.23,6.93,4.34l4.1,17.85-5.96,1.37c-.43.1-.86.15-1.29.15Zm-2.5-20.2c-.16,0-.31.02-.47.05l-.32.07c-1.14.26-1.86,1.4-1.59,2.55l2.81,12.21c.26,1.14,1.4,1.86,2.55,1.59l2.39-.55-3.28-14.28c-.23-.98-1.1-1.65-2.07-1.65Z"/>
  </g>
  <g>
    <path class="cls-1" d="m9.69,10.36h12.2c2.27,0,4.12,1.85,4.12,4.12h0c0,2.27-1.85,4.12-4.12,4.12H5.57v-4.12c0-2.27,1.85-4.12,4.12-4.12Z" transform="translate(14.35 35.86) rotate(-128.66)"/>
    <path class="cls-2" d="m19.6,25.26c-.22,0-.44-.01-.66-.04-1.54-.17-2.91-.93-3.88-2.14l-7.83-9.79c-1.99-2.49-1.59-6.14.9-8.13l.26-.2c1.21-.97,2.72-1.4,4.25-1.23,1.54.17,2.91.93,3.88,2.14l11.44,14.3-4.77,3.82c-1.03.83-2.29,1.27-3.59,1.27ZM12,7.36c-.48,0-.94.16-1.32.47l-.26.2c-.91.73-1.06,2.07-.33,2.99l7.83,9.79c.35.44.86.72,1.42.78.56.06,1.12-.1,1.56-.45l1.91-1.53-9.15-11.44c-.35-.44-.86-.72-1.42-.78-.08,0-.16-.01-.24-.01Z"/>
  </g>
  <g>
    <path class="cls-1" d="m6.88,14.07h12.2c2.27,0,4.12,1.85,4.12,4.12h0c0,2.27-1.85,4.12-4.12,4.12H2.76v-4.12c0-2.27,1.85-4.12,4.12-4.12Z" transform="translate(16.82 40.2) rotate(-154.37)"/>
    <path class="cls-2" d="m18.56,26.83c-.86,0-1.71-.19-2.51-.57l-11.3-5.42c-2.88-1.38-4.09-4.84-2.71-7.72l.14-.3c.67-1.39,1.84-2.44,3.3-2.95,1.46-.51,3.03-.43,4.42.24l16.51,7.92-2.64,5.51c-.67,1.39-1.84,2.44-3.3,2.96-.63.22-1.27.33-1.91.33ZM7.4,13.2c-.24,0-.47.04-.7.12-.54.19-.97.57-1.21,1.09l-.14.3c-.51,1.06-.06,2.33,1,2.83l11.3,5.42c.51.25,1.09.28,1.62.09.54-.19.97-.57,1.21-1.09l1.06-2.21-13.21-6.34c-.29-.14-.61-.21-.92-.21Z"/>
  </g>
  <g>
    <path class="cls-1" d="m14.31,28.62h12.2c2.27,0,4.12,1.85,4.12,4.12h0c0,2.27-1.85,4.12-4.12,4.12H10.19v-4.12c0-2.27,1.85-4.12,4.12-4.12Z" transform="translate(56.86 20.07) rotate(102.77)"/>
    <path class="cls-2" d="m19.21,44.68c-.43,0-.87-.05-1.3-.15l-.32-.07c-3.11-.71-5.07-3.81-4.36-6.92l4.05-17.86,5.96,1.35c1.51.34,2.79,1.25,3.61,2.56.82,1.31,1.09,2.86.75,4.36l-2.77,12.22c-.34,1.51-1.25,2.79-2.56,3.61-.93.59-1.99.89-3.07.89Zm-4.2-6.73l1.79.4c-.26,1.14.46,2.28,1.6,2.54l.32.07c.55.13,1.12.03,1.6-.27.48-.3.81-.77.94-1.33l2.77-12.22c.13-.55.03-1.12-.27-1.6-.3-.48-.77-.81-1.33-.94l-2.39-.54-3.24,14.29-1.79-.4Z"/>
  </g>
  <g>
    <path class="cls-1" d="m18.96,28.51h12.2c2.27,0,4.12,1.85,4.12,4.12h0c0,2.27-1.85,4.12-4.12,4.12H14.84v-4.12c0-2.27,1.85-4.12,4.12-4.12Z" transform="translate(51.25 .9) rotate(77.06)"/>
    <path class="cls-2" d="m26.31,44.56c-2.64,0-5.03-1.81-5.65-4.49l-4.1-17.85,5.96-1.37c3.11-.71,6.22,1.23,6.93,4.34l2.81,12.21c.35,1.51.08,3.06-.74,4.37-.82,1.31-2.1,2.22-3.61,2.57l-.32.07c-.43.1-.86.15-1.29.15Zm-2.08-5.31c.26,1.14,1.4,1.86,2.55,1.59l.32-.07c.55-.13,1.02-.46,1.32-.94s.4-1.05.27-1.6l-2.81-12.21c-.26-1.14-1.4-1.86-2.55-1.59l-2.39.55,3.28,14.28Z"/>
  </g>
  <g>
    <path class="cls-1" d="m23.1,26.4h12.2c2.27,0,4.12,1.85,4.12,4.12h0c0,2.27-1.85,4.12-4.12,4.12h-16.32v-4.12c0-2.27,1.85-4.12,4.12-4.12Z" transform="translate(34.79 -11.35) rotate(51.34)"/>
    <path class="cls-2" d="m33.01,41.3c-1.7,0-3.39-.74-4.53-2.17l-11.44-14.3,4.77-3.82c1.21-.97,2.72-1.4,4.25-1.23,1.54.17,2.91.93,3.88,2.14l7.83,9.79c1.99,2.49,1.59,6.14-.9,8.13l-.26.2c-1.06.85-2.33,1.26-3.6,1.27Zm-1.67-4.46c.73.91,2.07,1.06,2.99.33l.26-.2c.91-.73,1.06-2.07.33-2.99l-7.83-9.79c-.35-.44-.86-.72-1.42-.78-.56-.06-1.12.1-1.56.45l-1.91,1.53,9.15,11.44Z"/>
  </g>
  <g>
    <path class="cls-1" d="m25.92,22.69h12.2c2.27,0,4.12,1.85,4.12,4.12h0c0,2.27-1.85,4.12-4.12,4.12h-16.32v-4.12c0-2.27,1.85-4.12,4.12-4.12Z" transform="translate(14.75 -11.21) rotate(25.63)"/>
    <path class="cls-2" d="m37.6,35.46c-.86,0-1.71-.19-2.51-.57l-16.51-7.92,2.64-5.51c.67-1.39,1.84-2.44,3.3-2.96,1.46-.51,3.03-.43,4.42.24l11.3,5.42c2.88,1.38,4.09,4.84,2.71,7.72l-.14.3c-.67,1.39-1.84,2.44-3.3,2.96-.63.22-1.27.33-1.91.33Zm-14.14-10.21l13.21,6.34c.51.25,1.09.28,1.62.09.54-.19.97-.57,1.21-1.09l.14-.3c.51-1.06.06-2.33-1-2.83l-11.3-5.42c-.51-.25-1.09-.28-1.62-.09-.54.19-.97.57-1.21,1.09l-1.06,2.21Z"/>
  </g>
  <g>
    <path class="cls-1" d="m39.21,18.36h-9.93s-8.25.03-8.25.03l-15.25.02c-2.18,0-3.95,1.78-3.95,3.96v.33c0,2.18,1.78,3.95,3.96,3.95l11.3-.02h8.25s13.88-.03,13.88-.03c2.18,0,3.95-1.78,3.95-3.96v-.33c0-2.18-1.78-3.95-3.96-3.95Z"/>
    <path class="cls-2" d="m39.22,28.42l-33.43.05C2.6,28.48,0,25.89,0,22.7v-.33c0-3.19,2.59-5.79,5.78-5.79l33.43-.05c3.19,0,5.79,2.59,5.79,5.78v.33c0,3.19-2.59,5.79-5.78,5.79ZM5.78,20.24c-1.17,0-2.12.96-2.12,2.13v.33c0,1.17.96,2.12,2.13,2.12l33.43-.05c1.17,0,2.12-.96,2.12-2.13v-.33c0-1.17-.96-2.12-2.13-2.12l-33.43.05Z"/>
  </g>
</svg>