<?xml version="1.0" encoding="UTF-8"?>
<svg id="Capa_1" data-name="Capa 1" xmlns="http://www.w3.org/2000/svg" viewBox="0 0 242.35 89.58">
  <defs>
    <style>
      .cls-1 {
        fill: #fff;
      }

      .cls-2 {
        fill: #39b54a;
      }

      .cls-3 {
        fill: #edac0a;
      }

      .cls-4 {
        fill: #0071bc;
      }

      .cls-5 {
        fill: #ed1c24;
      }

      .cls-6 {
        fill: #c605d1;
      }
    </style>
  </defs>
  <g>
    <path class="cls-1" d="m90.78,45.12v-.66c0-6.44-5.23-11.67-11.66-11.67h-19.13l4.17-18.3c1.44-6.27-2.5-12.54-8.78-13.97l-.64-.15c-3.04-.69-6.17-.17-8.8,1.49-.39.24-.76.5-1.1.79-.26-.21-.55-.4-.84-.59-2.64-1.65-5.77-2.18-8.8-1.49l-.65.15c-3.04.69-5.62,2.53-7.28,5.17-.24.39-.46.79-.65,1.19-.33-.07-.66-.12-1.01-.16-3.1-.35-6.14.53-8.58,2.47l-.51.42c-2.44,1.94-3.97,4.72-4.32,7.81-.05.45-.07.9-.07,1.35-3.24.82-6.08,3.01-7.64,6.24l-.29.6c-1.34,2.8-1.52,5.97-.49,8.91.12.32.23.63.38.93C1.6,37.78.04,40.94.04,44.46v.66c0,6.43,5.23,11.66,11.67,11.66h19.14l-4.18,18.31c-.69,3.04-.16,6.16,1.5,8.8,1.66,2.64,4.24,4.47,7.28,5.17l.64.15c.87.2,1.75.29,2.63.29,2.16,0,4.3-.61,6.19-1.8.39-.24.76-.5,1.1-.79,2,1.51,4.45,2.37,7.04,2.37.86,0,1.73-.09,2.6-.29l.64-.15c3.04-.69,5.63-2.53,7.28-5.17.24-.39.46-.79.65-1.2.77.17,1.54.24,2.33.24,2.55,0,5.12-.83,7.27-2.54l.51-.41c2.9-2.31,4.4-5.73,4.39-9.19,3.22-.81,6.08-3,7.63-6.23l.28-.59c1.35-2.81,1.53-5.98.5-8.92-.12-.32-.23-.63-.38-.92,2.47-2.14,4.02-5.29,4.02-8.8Z"/>
    <g>
      <path class="cls-1" d="m90.78,45.12v-.66c0-6.44-5.23-11.67-11.66-11.67h-19.14l4.17-18.3c1.44-6.27-2.5-12.54-8.78-13.97l-.64-.15c-3.04-.69-6.17-.17-8.8,1.49-.39.24-.76.5-1.1.79-.26-.21-.55-.4-.84-.59-2.64-1.65-5.77-2.18-8.8-1.49l-.65.15c-3.04.69-5.62,2.53-7.28,5.17-.24.39-.46.79-.65,1.19-.33-.07-.66-.12-1.01-.16-3.1-.35-6.14.53-8.58,2.47l-.51.42c-2.44,1.94-3.97,4.72-4.32,7.81-.05.45-.07.9-.07,1.35-3.23.82-6.08,3.01-7.64,6.24l-.29.6c-1.34,2.8-1.52,5.97-.49,8.91.12.32.23.63.38.93C1.6,37.78.04,40.94.04,44.46v.66c0,6.43,5.23,11.66,11.67,11.66h19.14l-4.18,18.31c-.69,3.04-.16,6.16,1.5,8.8,1.66,2.64,4.24,4.47,7.28,5.17l.64.15c.87.2,1.75.29,2.63.29,2.16,0,4.3-.61,6.19-1.8.39-.24.76-.5,1.1-.79,2,1.51,4.45,2.37,7.04,2.37.86,0,1.73-.09,2.6-.29l.64-.15c3.04-.69,5.63-2.53,7.28-5.17.24-.39.46-.79.65-1.2.77.17,1.54.24,2.33.24,2.55,0,5.11-.83,7.27-2.54l.51-.41c2.9-2.31,4.4-5.73,4.39-9.19,3.22-.81,6.08-3,7.64-6.23l.28-.59c1.35-2.81,1.53-5.98.5-8.92-.12-.32-.23-.63-.38-.92,2.47-2.14,4.02-5.29,4.02-8.8ZM49.86,8.12c.69-.43,1.47-.66,2.27-.66.33,0,.64.04.97.12l.64.15c2.3.53,3.75,2.83,3.22,5.13l-3.5,15.35-4.31-18.84c-.04-.18-.08-.36-.14-.54.24-.27.53-.5.84-.7Zm-16.35,1.7c.61-.97,1.56-1.64,2.68-1.9l.64-.15c.33-.07.64-.1.97-.1.8,0,1.58.22,2.27.66.28.18.54.38.76.61.57.56.96,1.27,1.14,2.06l1.08,4.76,1.89,8.29.54,2.31-.83-1.03-2.94-3.69-2.94-3.7-5.35-6.7c-.12-.15-.23-.28-.35-.43.09-.35.24-.67.44-.99Zm-13.99,8.62c.13-1.13.69-2.15,1.59-2.87l.51-.41c.77-.61,1.7-.93,2.67-.93.16,0,.33.01.48.02.33.04.65.12.96.23.75.25,1.41.72,1.91,1.35l3.05,3.81,5.3,6.65.67.85.8,1.01-.92-.45-.26-.13-4.24-2.05-4.25-2.05-7.73-3.72c-.17-.08-.34-.16-.51-.22-.04-.37-.05-.74-.01-1.1Zm-8.68,10.58l.28-.6c.66-1.39,1.98-2.25,3.4-2.39.16-.02.3-.03.46-.03.62,0,1.25.14,1.85.42l4.39,2.11,7.68,3.7.97.46.21.11H11.71c-.27,0-.55.01-.82.03-.09-.17-.17-.35-.23-.54-.38-1.08-.31-2.24.19-3.27Zm.86,20.37c-2.36,0-4.29-1.92-4.29-4.27v-.66c0-1.37.64-2.58,1.65-3.37.71-.57,1.64-.91,2.64-.91h67.42c2.36,0,4.27,1.92,4.27,4.29v.66c0,1.37-.64,2.58-1.65,3.36-.72.58-1.64.91-2.63.91H11.71Zm29.26,32.05c-.98.61-2.12.81-3.23.55l-.64-.15c-1.12-.25-2.07-.92-2.68-1.89-.61-.97-.81-2.12-.55-3.23l3.5-15.34,4.31,18.83c.04.18.08.37.14.55-.24.26-.53.49-.84.69Zm13.67.2l-.65.15c-1.49.34-2.97-.15-3.98-1.17-.55-.54-.96-1.24-1.14-2.06l-1.08-4.76-1.9-8.29-.52-2.31.82,1.03,2.94,3.69,2.95,3.7,5.35,6.7c.12.15.23.28.36.42-.44,1.41-1.6,2.55-3.13,2.9Zm16.67-10.52c-.14,1.13-.69,2.15-1.59,2.87l-.52.41c-.89.71-2.01,1.04-3.15.91-.33-.03-.64-.11-.95-.22-.75-.26-1.42-.72-1.92-1.37l-3.05-3.81-5.29-6.65-.67-.84-.81-1.02.94.45.25.13,4.25,2.05,4.25,2.05,7.72,3.72c.17.08.34.16.51.23.05.36.06.72.02,1.09Zm8.68-10.57l-.28.59c-.5,1.03-1.37,1.81-2.45,2.18-.31.12-.63.18-.96.21-.79.09-1.59-.04-2.32-.39l-4.39-2.11-7.67-3.7-.97-.46-.21-.11h18.38c.27,0,.55-.01.81-.03.09.17.17.35.23.54.38,1.08.31,2.24-.18,3.28Z"/>
      <g>
        <path class="cls-6" d="m53.47,28.2l3.5-15.35c.53-2.3-.92-4.6-3.22-5.13l-.64-.15c-.33-.07-.64-.12-.97-.12-.8,0-1.58.23-2.27.66-.31.2-.6.43-.84.7.05.18.09.36.14.54l4.31,18.84Z"/>
        <path class="cls-4" d="m38.76,17.94l2.94,3.7,2.94,3.69.83,1.03-.54-2.31-1.89-8.29-1.08-4.76c-.19-.79-.58-1.5-1.14-2.06-.22-.23-.47-.43-.76-.61-.69-.44-1.47-.66-2.27-.66-.33,0-.64.03-.97.1l-.64.15c-1.11.26-2.07.93-2.68,1.9-.2.32-.35.64-.44.99.12.15.23.28.35.43l5.35,6.7Z"/>
        <path class="cls-2" d="m20.05,19.77l7.73,3.72,4.25,2.05,4.24,2.05.26.13.92.45-.8-1.01-.67-.85-5.3-6.65-3.05-3.81c-.5-.63-1.17-1.1-1.91-1.35-.3-.12-.63-.19-.96-.23-.16-.01-.33-.02-.48-.02-.97,0-1.9.33-2.67.93l-.51.41c-.89.71-1.46,1.73-1.59,2.87-.04.37-.03.74.01,1.1.18.06.35.14.51.22Z"/>
        <path class="cls-3" d="m10.89,32.82c.27-.02.55-.03.82-.03h18.38l-.21-.11-.97-.46-7.68-3.7-4.39-2.11c-.6-.28-1.23-.42-1.85-.42-.16,0-.3.01-.46.03-1.42.15-2.74,1.01-3.4,2.39l-.28.6c-.5,1.03-.57,2.18-.19,3.27.06.19.14.37.23.54Z"/>
        <path class="cls-6" d="m37.36,61.38l-3.5,15.34c-.26,1.11-.06,2.27.55,3.23.61.97,1.55,1.64,2.68,1.89l.64.15c1.11.26,2.26.06,3.23-.55.31-.2.6-.43.84-.69-.05-.18-.09-.37-.14-.55l-4.31-18.83Z"/>
        <path class="cls-4" d="m52.07,71.63l-2.95-3.7-2.94-3.69-.82-1.03.52,2.31,1.9,8.29,1.08,4.76c.19.82.6,1.52,1.14,2.06,1.01,1.02,2.49,1.5,3.98,1.17l.65-.15c1.53-.35,2.69-1.49,3.13-2.9-.13-.14-.24-.27-.36-.42l-5.35-6.7Z"/>
        <path class="cls-2" d="m70.77,69.8l-7.72-3.72-4.25-2.05-4.25-2.05-.25-.13-.94-.45.81,1.02.67.84,5.29,6.65,3.05,3.81c.5.64,1.18,1.1,1.92,1.37.3.12.62.19.95.22,1.15.13,2.26-.2,3.15-.91l.52-.41c.89-.71,1.45-1.73,1.59-2.87.04-.37.03-.74-.02-1.09-.18-.07-.35-.15-.51-.23Z"/>
        <path class="cls-3" d="m79.93,56.75c-.26.02-.54.03-.81.03h-18.38l.21.11.97.46,7.67,3.7,4.39,2.11c.74.35,1.53.48,2.32.39.33-.03.64-.09.96-.21,1.08-.38,1.94-1.16,2.45-2.18l.28-.59c.49-1.04.56-2.2.18-3.28-.06-.19-.14-.37-.23-.54Z"/>
        <path class="cls-5" d="m81.75,48.48c1.01-.78,1.65-2,1.65-3.36v-.66c0-2.36-1.91-4.29-4.27-4.29H11.71c-1,0-1.92.35-2.64.91-1.01.79-1.65,2.01-1.65,3.37v.66c0,2.35,1.92,4.27,4.29,4.27h67.42c.99,0,1.9-.34,2.63-.91Z"/>
      </g>
    </g>
  </g>
  <g>
    <g>
      <path class="cls-1" d="m101.24,76.52c-.65,0-.98-.34-.98-1.01v-8.93c0-.66.33-1,1-1h3.7c1.19,0,2.1.3,2.75.89.64.59.97,1.42.97,2.49s-.32,1.89-.97,2.49c-.64.6-1.56.9-2.75.9h-2.73v3.16c0,.67-.33,1.01-.98,1.01Zm.98-5.72h2.42c1.41,0,2.12-.61,2.12-1.84s-.71-1.83-2.12-1.83h-2.42v3.67Z"/>
      <path class="cls-1" d="m111.31,76.39c-.7,0-1.04-.35-1.04-1.04v-8.73c0-.7.35-1.04,1.04-1.04h5.48c.53,0,.8.26.8.77s-.27.8-.8.8h-4.63v2.98h4.3c.53,0,.8.26.8.78s-.27.78-.8.78h-4.3v3.14h4.63c.53,0,.8.26.8.78s-.27.78-.8.78h-5.48Z"/>
      <path class="cls-1" d="m120.4,76.52c-.65,0-.98-.34-.98-1.01v-8.93c0-.66.33-1,1-1h3.7c1.19,0,2.1.28,2.75.85.64.57.97,1.36.97,2.39,0,.81-.21,1.48-.63,2-.42.53-1.02.88-1.81,1.07.52.16.95.56,1.29,1.18l1.15,2.13c.17.33.21.63.1.91s-.37.41-.79.41c-.28,0-.5-.06-.67-.18-.17-.12-.33-.3-.46-.54l-1.55-2.85c-.18-.35-.4-.58-.65-.7-.25-.12-.57-.18-.96-.18h-1.46v3.44c0,.67-.33,1.01-.98,1.01Zm.98-5.91h2.39c1.43,0,2.15-.58,2.15-1.75s-.72-1.73-2.15-1.73h-2.39v3.48Z"/>
      <path class="cls-1" d="m133.64,76.55c-.69,0-1.35-.08-2-.23-.65-.15-1.21-.38-1.7-.69-.24-.15-.38-.34-.43-.57-.05-.22-.03-.44.05-.64.09-.2.22-.34.41-.41.19-.08.41-.04.65.12.45.27.93.46,1.43.58.5.12,1.03.18,1.58.18.81,0,1.4-.14,1.76-.41.37-.27.55-.62.55-1.05,0-.36-.13-.64-.39-.84-.26-.2-.71-.37-1.34-.51l-1.69-.35c-1.92-.41-2.88-1.4-2.88-2.96,0-.67.18-1.26.54-1.76.36-.5.85-.89,1.49-1.17.63-.28,1.37-.41,2.19-.41.61,0,1.2.08,1.75.23.55.15,1.05.38,1.49.67.2.14.33.32.37.53.04.21.02.4-.08.58-.09.18-.24.3-.44.37-.2.07-.43.02-.7-.13-.38-.21-.76-.37-1.15-.46-.39-.09-.81-.14-1.26-.14-.71,0-1.26.15-1.66.44-.4.3-.6.69-.6,1.17,0,.37.12.66.37.88.25.22.66.39,1.26.51l1.67.35c1.01.21,1.77.55,2.26,1.01.5.46.74,1.07.74,1.84,0,.64-.17,1.21-.52,1.7-.35.49-.84.87-1.48,1.14-.64.27-1.39.41-2.26.41Z"/>
      <path class="cls-1" d="m144.44,76.55c-1.04,0-1.96-.23-2.74-.69-.78-.46-1.39-1.11-1.82-1.94-.43-.83-.64-1.81-.64-2.94s.21-2.12.64-2.95,1.03-1.47,1.81-1.93c.78-.45,1.69-.68,2.75-.68s1.97.23,2.75.68c.78.46,1.38,1.1,1.81,1.93.43.83.64,1.81.64,2.93s-.21,2.12-.64,2.95c-.43.83-1.03,1.48-1.81,1.94-.78.46-1.69.69-2.75.69Zm0-1.69c.99,0,1.76-.34,2.32-1.03.55-.68.83-1.64.83-2.85s-.27-2.18-.82-2.85c-.55-.68-1.32-1.01-2.32-1.01s-1.76.34-2.32,1.01c-.55.67-.83,1.63-.83,2.85s.28,2.17.83,2.85c.55.69,1.32,1.03,2.32,1.03Z"/>
      <path class="cls-1" d="m152.55,76.52c-.61,0-.92-.32-.92-.95v-9.13c0-.32.08-.56.24-.73.16-.17.37-.25.62-.25.24,0,.41.04.53.13.12.09.26.23.42.44l5.48,7.1v-6.73c0-.62.31-.94.92-.94s.91.31.91.94v9.2c0,.29-.07.51-.21.68-.14.16-.34.25-.58.25s-.42-.05-.56-.14c-.14-.09-.29-.24-.45-.44l-5.48-7.12v6.75c0,.63-.3.95-.91.95Z"/>
      <path class="cls-1" d="m163.22,76.52c-.36,0-.61-.12-.77-.37-.15-.25-.15-.54.02-.89l4.05-8.97c.13-.3.29-.51.48-.64.19-.13.41-.19.65-.19s.45.06.64.19c.19.13.35.34.48.64l4.07,8.97c.16.36.17.66.03.9-.14.24-.39.36-.74.36-.29,0-.51-.07-.67-.21-.16-.14-.3-.35-.42-.64l-.77-1.78h-5.28l-.75,1.78c-.13.3-.27.51-.41.64-.14.13-.35.2-.61.2Zm4.4-8.81l-1.95,4.62h3.93l-1.95-4.62h-.03Z"/>
      <path class="cls-1" d="m175.52,76.39c-.66,0-1-.34-1-1.01v-8.85c0-.66.33-1,.98-1s.98.33.98,1v8.19h4.45c.57,0,.86.28.86.83s-.29.84-.86.84h-5.41Z"/>
      <path class="cls-1" d="m184.12,76.52c-.65,0-.98-.34-.98-1.01v-9.04c0-.67.33-1.01.98-1.01s.98.34.98,1.01v9.04c0,.67-.33,1.01-.98,1.01Z"/>
      <path class="cls-1" d="m187.91,76.39c-.34,0-.59-.09-.76-.27-.17-.18-.24-.41-.21-.7.03-.29.15-.58.38-.89l5.4-7.32h-4.95c-.58,0-.87-.28-.87-.83s.29-.81.87-.81h6.35c.34,0,.59.09.76.27.17.18.24.41.22.69-.02.28-.15.58-.38.9l-5.4,7.32h5.18c.58,0,.87.27.87.81s-.29.83-.87.83h-6.58Z"/>
      <path class="cls-1" d="m196.7,76.52c-.36,0-.61-.12-.77-.37-.15-.25-.15-.54.02-.89l4.05-8.97c.13-.3.29-.51.48-.64.19-.13.41-.19.65-.19s.45.06.64.19c.19.13.35.34.48.64l4.07,8.97c.16.36.17.66.03.9-.14.24-.39.36-.74.36-.29,0-.51-.07-.67-.21-.16-.14-.3-.35-.42-.64l-.77-1.78h-5.28l-.75,1.78c-.13.3-.27.51-.41.64-.14.13-.35.2-.61.2Zm4.4-8.81l-1.95,4.62h3.93l-1.95-4.62h-.03Z"/>
      <path class="cls-1" d="m209.05,76.39c-.7,0-1.04-.35-1.04-1.04v-8.73c0-.7.35-1.04,1.04-1.04h2.98c1.81,0,3.21.47,4.2,1.4.99.93,1.48,2.27,1.48,4s-.49,3.06-1.48,4c-.99.94-2.39,1.41-4.2,1.41h-2.98Zm.92-1.63h1.93c2.5,0,3.74-1.26,3.74-3.79s-1.25-3.77-3.74-3.77h-1.93v7.56Z"/>
      <path class="cls-1" d="m224.54,76.55c-1.04,0-1.96-.23-2.74-.69-.78-.46-1.39-1.11-1.82-1.94-.43-.83-.64-1.81-.64-2.94s.21-2.12.64-2.95,1.03-1.47,1.81-1.93c.78-.45,1.69-.68,2.75-.68s1.97.23,2.75.68c.78.46,1.38,1.1,1.81,1.93.43.83.64,1.81.64,2.93s-.21,2.12-.64,2.95c-.43.83-1.03,1.48-1.81,1.94-.78.46-1.69.69-2.75.69Zm0-1.69c.99,0,1.76-.34,2.32-1.03.55-.68.83-1.64.83-2.85s-.27-2.18-.82-2.85c-.55-.68-1.32-1.01-2.32-1.01s-1.76.34-2.32,1.01c-.55.67-.83,1.63-.83,2.85s.28,2.17.83,2.85c.55.69,1.32,1.03,2.32,1.03Z"/>
      <path class="cls-1" d="m235.47,76.55c-.69,0-1.35-.08-2-.23-.65-.15-1.21-.38-1.7-.69-.24-.15-.38-.34-.43-.57-.05-.22-.03-.44.05-.64.09-.2.22-.34.41-.41.19-.08.41-.04.65.12.45.27.93.46,1.43.58.5.12,1.03.18,1.58.18.81,0,1.4-.14,1.76-.41.37-.27.55-.62.55-1.05,0-.36-.13-.64-.39-.84-.26-.2-.71-.37-1.34-.51l-1.69-.35c-1.92-.41-2.88-1.4-2.88-2.96,0-.67.18-1.26.54-1.76.36-.5.85-.89,1.49-1.17.63-.28,1.37-.41,2.19-.41.61,0,1.2.08,1.75.23.55.15,1.05.38,1.49.67.2.14.33.32.37.53.04.21.02.4-.08.58-.09.18-.24.3-.44.37-.2.07-.43.02-.7-.13-.38-.21-.76-.37-1.15-.46-.39-.09-.81-.14-1.26-.14-.71,0-1.26.15-1.66.44-.4.3-.6.69-.6,1.17,0,.37.12.66.37.88.25.22.66.39,1.26.51l1.67.35c1.01.21,1.77.55,2.26,1.01.5.46.74,1.07.74,1.84,0,.64-.17,1.21-.52,1.7-.35.49-.84.87-1.48,1.14-.64.27-1.39.41-2.26.41Z"/>
    </g>
    <g>
      <path class="cls-1" d="m104.71,56.79c-2.95,0-4.43-1.52-4.43-4.57V11.39c0-3,1.48-4.5,4.43-4.5s4.43,1.5,4.43,4.5v17.65h.14l19.86-19.93c.74-.74,1.48-1.29,2.21-1.66.74-.37,1.57-.55,2.49-.55,1.34,0,2.29.35,2.87,1.04.58.69.81,1.5.69,2.42-.12.92-.57,1.78-1.35,2.56l-18.2,18,19.17,19.45c.97.92,1.48,1.89,1.52,2.91.05,1.02-.27,1.86-.93,2.53-.67.67-1.65,1-2.94,1-1.11,0-2-.23-2.66-.69-.67-.46-1.44-1.13-2.32-2.01l-20.42-20.42h-.14v18.55c0,3.05-1.48,4.57-4.43,4.57Z"/>
      <path class="cls-1" d="m156.62,56.93c-2.45,0-4.63-.47-6.54-1.42-1.92-.95-3.42-2.23-4.5-3.84-1.08-1.61-1.63-3.44-1.63-5.47,0-2.49.65-4.46,1.94-5.92,1.29-1.45,3.39-2.5,6.3-3.15,2.91-.65,6.81-.97,11.7-.97h2.42v-1.45c0-2.31-.51-3.97-1.52-4.98-1.02-1.01-2.72-1.52-5.12-1.52-1.34,0-2.78.16-4.33.48-1.55.32-3.17.88-4.88,1.66-1.11.51-2.03.57-2.77.17-.74-.39-1.24-1.01-1.49-1.87-.25-.85-.21-1.72.14-2.6.35-.88,1.05-1.52,2.11-1.94,2.12-.88,4.16-1.5,6.13-1.87,1.96-.37,3.75-.55,5.36-.55,4.94,0,8.61,1.14,11,3.43,2.4,2.28,3.6,5.83,3.6,10.62v16.61c0,2.95-1.34,4.43-4.01,4.43s-4.08-1.48-4.08-4.43v-1.52c-.79,1.89-2.03,3.38-3.74,4.46-1.71,1.08-3.74,1.63-6.09,1.63Zm1.8-5.95c2.26,0,4.14-.78,5.64-2.35,1.5-1.57,2.25-3.55,2.25-5.95v-1.52h-2.35c-4.34,0-7.35.34-9.03,1-1.68.67-2.53,1.88-2.53,3.63,0,1.52.53,2.77,1.59,3.74,1.06.97,2.54,1.45,4.43,1.45Z"/>
      <path class="cls-1" d="m198.84,56.93c-8.95,0-13.43-4.43-13.43-13.29v-14.74h-3.6c-2.31,0-3.46-1.08-3.46-3.25s1.15-3.25,3.46-3.25h3.6v-6.3c0-2.91,1.45-4.36,4.36-4.36s4.29,1.45,4.29,4.36v6.3h7.34c2.31,0,3.46,1.08,3.46,3.25s-1.15,3.25-3.46,3.25h-7.34v14.26c0,2.21.48,3.88,1.45,4.98.97,1.11,2.54,1.66,4.71,1.66.78,0,1.48-.07,2.08-.21.6-.14,1.13-.23,1.59-.28.55-.05,1.01.13,1.38.52.37.39.55,1.19.55,2.39,0,.92-.15,1.74-.45,2.46-.3.72-.84,1.21-1.63,1.49-.6.18-1.38.36-2.35.52-.97.16-1.82.24-2.56.24Z"/>
      <path class="cls-1" d="m225,56.93c-3.51,0-6.55-.71-9.14-2.15-2.58-1.43-4.59-3.47-6.02-6.13-1.43-2.65-2.15-5.78-2.15-9.38s.71-6.71,2.15-9.34c1.43-2.63,3.44-4.66,6.02-6.09,2.58-1.43,5.63-2.15,9.14-2.15s6.55.72,9.14,2.15c2.58,1.43,4.59,3.46,6.02,6.09,1.43,2.63,2.15,5.74,2.15,9.34s-.72,6.73-2.15,9.38c-1.43,2.65-3.44,4.7-6.02,6.13-2.58,1.43-5.63,2.15-9.14,2.15Zm0-6.58c2.58,0,4.66-.93,6.23-2.8,1.57-1.87,2.35-4.63,2.35-8.27s-.79-6.45-2.35-8.27c-1.57-1.82-3.65-2.73-6.23-2.73s-4.66.91-6.23,2.73c-1.57,1.82-2.35,4.58-2.35,8.27s.78,6.4,2.35,8.27c1.57,1.87,3.64,2.8,6.23,2.8Z"/>
    </g>
  </g>
</svg>